<svg id="visual" viewBox="0 0 2400 600" width="2400" height="600" xmlns="http://www.w3.org/2000/svg" xmlns:xlink="http://www.w3.org/1999/xlink" version="1.1"><path d="M0 246L57.2 260C114.3 274 228.7 302 343 302.8C457.3 303.7 571.7 277.3 686 288.2C800.3 299 914.7 347 1028.8 374.7C1143 402.3 1257 409.7 1371.2 410.7C1485.3 411.7 1599.7 406.3 1714 407C1828.3 407.7 1942.7 414.3 2057 398C2171.3 381.7 2285.7 342.3 2342.8 322.7L2400 303L2400 601L2342.8 601C2285.7 601 2171.3 601 2057 601C1942.7 601 1828.3 601 1714 601C1599.7 601 1485.3 601 1371.2 601C1257 601 1143 601 1028.8 601C914.7 601 800.3 601 686 601C571.7 601 457.3 601 343 601C228.7 601 114.3 601 57.2 601L0 601Z" fill="#6366f1"></path><path d="M0 423L57.2 417.8C114.3 412.7 228.7 402.3 343 389.5C457.3 376.7 571.7 361.3 686 373.3C800.3 385.3 914.7 424.7 1028.8 431.7C1143 438.7 1257 413.3 1371.2 395.8C1485.3 378.3 1599.7 368.7 1714 373.5C1828.3 378.3 1942.7 397.7 2057 403.7C2171.3 409.7 2285.7 402.3 2342.8 398.7L2400 395L2400 601L2342.8 601C2285.7 601 2171.3 601 2057 601C1942.7 601 1828.3 601 1714 601C1599.7 601 1485.3 601 1371.2 601C1257 601 1143 601 1028.8 601C914.7 601 800.3 601 686 601C571.7 601 457.3 601 343 601C228.7 601 114.3 601 57.2 601L0 601Z" fill="#8758eb"></path><path d="M0 392L57.2 402.8C114.3 413.7 228.7 435.3 343 434.8C457.3 434.3 571.7 411.7 686 401.2C800.3 390.7 914.7 392.3 1028.8 403C1143 413.7 1257 433.3 1371.2 440.8C1485.3 448.3 1599.7 443.7 1714 455.3C1828.3 467 1942.7 495 2057 510.3C2171.3 525.7 2285.7 528.3 2342.8 529.7L2400 531L2400 601L2342.8 601C2285.7 601 2171.3 601 2057 601C1942.7 601 1828.3 601 1714 601C1599.7 601 1485.3 601 1371.2 601C1257 601 1143 601 1028.8 601C914.7 601 800.3 601 686 601C571.7 601 457.3 601 343 601C228.7 601 114.3 601 57.2 601L0 601Z" fill="#a645e1"></path><path d="M0 568L57.2 550.5C114.3 533 228.7 498 343 492.7C457.3 487.3 571.7 511.7 686 514.5C800.3 517.3 914.7 498.7 1028.8 486C1143 473.3 1257 466.7 1371.2 479.5C1485.3 492.3 1599.7 524.7 1714 528.5C1828.3 532.3 1942.7 507.7 2057 495.5C2171.3 483.3 2285.7 483.7 2342.8 483.8L2400 484L2400 601L2342.8 601C2285.7 601 2171.3 601 2057 601C1942.7 601 1828.3 601 1714 601C1599.7 601 1485.3 601 1371.2 601C1257 601 1143 601 1028.8 601C914.7 601 800.3 601 686 601C571.7 601 457.3 601 343 601C228.7 601 114.3 601 57.2 601L0 601Z" fill="#c026d3"></path></svg>